<svg width="24" height="24" viewBox="0 0 24 24" fill="none" xmlns="http://www.w3.org/2000/svg">
<path fill-rule="evenodd" clip-rule="evenodd" d="M3.37487 9.9975C4.06588 10.3964 4.8661 10.5645 5.65921 10.4774C6.45231 10.3902 7.19696 10.0524 7.78487 9.513L8.32337 9.8235C8.83337 10.1175 9.48887 9.8535 9.77837 9.3405C10.0634 8.835 9.95087 8.1645 9.44837 7.875L8.90987 7.5645C9.06095 6.88757 9.02141 6.18201 8.79564 5.5262C8.56987 4.87039 8.16672 4.29001 7.63097 3.84953C7.09521 3.40905 6.44783 3.12571 5.76075 3.031C5.07366 2.93628 4.37377 3.0339 3.73883 3.313C3.10388 3.5921 2.55873 4.04176 2.16395 4.61203C1.76917 5.18229 1.54021 5.85084 1.5025 6.5434C1.46479 7.23595 1.61982 7.92541 1.95035 8.53516C2.28088 9.14492 2.77398 9.65111 3.37487 9.9975ZM6.54587 7.5C6.4481 7.67197 6.31728 7.8229 6.16094 7.9441C6.00459 8.0653 5.82582 8.15438 5.63491 8.20621C5.444 8.25805 5.24473 8.2716 5.04856 8.2461C4.85239 8.22061 4.6632 8.15656 4.49188 8.05764C4.32057 7.95873 4.17051 7.82691 4.05035 7.66977C3.93018 7.51263 3.84229 7.33327 3.79173 7.14202C3.74116 6.95077 3.72893 6.75141 3.75573 6.55541C3.78253 6.35942 3.84783 6.17066 3.94787 6C4.1482 5.65829 4.47555 5.40969 4.8585 5.30844C5.24144 5.2072 5.64889 5.26153 5.99192 5.45959C6.33495 5.65764 6.58572 5.98334 6.6895 6.3656C6.79328 6.74787 6.74165 7.15566 6.54587 7.5ZM13.3544 8.1975C12.7112 8.41509 12.1316 8.78811 11.6671 9.28345C11.2027 9.77879 10.8677 10.3811 10.6919 11.037L10.1294 13.134L7.78487 14.487C7.12468 13.8808 6.26927 13.531 5.37349 13.5009C4.47771 13.4709 3.60077 13.7625 2.9014 14.323C2.20203 14.8836 1.72645 15.676 1.56076 16.5568C1.39507 17.4376 1.55021 18.3487 1.99811 19.125C2.446 19.9014 3.15704 20.4917 4.00252 20.7892C4.848 21.0867 5.77204 21.0716 6.60738 20.7467C7.44271 20.4219 8.13413 19.8087 8.55648 19.0181C8.97883 18.2276 9.10419 17.312 8.90987 16.437L22.0499 8.85C22.2426 8.73886 22.398 8.57307 22.4966 8.37359C22.5951 8.17411 22.6322 7.9499 22.6033 7.72931C22.5744 7.50872 22.4808 7.30164 22.3342 7.13427C22.1876 6.9669 21.9947 6.84675 21.7799 6.789L20.6069 6.474C19.8201 6.26355 18.9887 6.29069 18.2174 6.552L13.3544 8.1975ZM6.54737 16.5C6.64742 16.6707 6.71272 16.8594 6.73952 17.0554C6.76632 17.2514 6.75409 17.4508 6.70352 17.642C6.65296 17.8333 6.56507 18.0126 6.4449 18.1698C6.32474 18.3269 6.17468 18.4587 6.00337 18.5576C5.83205 18.6566 5.64286 18.7206 5.44669 18.7461C5.25052 18.7716 5.05125 18.758 4.86034 18.7062C4.66943 18.6544 4.49066 18.5653 4.33431 18.4441C4.17797 18.3229 4.04715 18.172 3.94937 18C3.7536 17.6557 3.70197 17.2479 3.80575 16.8656C3.90953 16.4833 4.1603 16.1576 4.50333 15.9596C4.84636 15.7615 5.25381 15.7072 5.63675 15.8084C6.0197 15.9097 6.34705 16.1583 6.54737 16.5Z" fill="white"/>
<path d="M13.3381 15.612C13.2601 15.657 13.2676 15.774 13.3546 15.804L18.2191 17.4495C18.9908 17.7098 19.8222 17.7359 20.6086 17.5245L21.7801 17.2125C21.995 17.1547 22.1879 17.0346 22.3345 16.8672C22.481 16.6998 22.5747 16.4928 22.6036 16.2722C22.6325 16.0516 22.5953 15.8274 22.4968 15.6279C22.3983 15.4284 22.2429 15.2626 22.0501 15.1515L18.8446 13.299C18.6166 13.1673 18.3579 13.098 18.0946 13.098C17.8313 13.098 17.5727 13.1673 17.3446 13.299L13.3381 15.612Z" fill="white"/>
</svg>
