<svg width="28" height="28" viewBox="0 0 28 28" fill="none" xmlns="http://www.w3.org/2000/svg">
<path d="M13.9998 4.90051L1.22949 9.6895L13.9998 16.0746L20.0821 13.0335L14.3762 11.2889C14.2587 11.3453 14.1301 11.3747 13.9998 11.375C13.7677 11.375 13.5452 11.2828 13.3811 11.1187C13.217 10.9546 13.1248 10.732 13.1248 10.5C13.1248 10.2679 13.217 10.0453 13.3811 9.88125C13.5452 9.71715 13.7677 9.62497 13.9998 9.62497L13.8551 10.0954L14.8688 10.4073L14.8693 10.4103L16.3652 10.8678L24.8826 13.4884V14.1526C24.7648 14.2327 24.6683 14.3404 24.6016 14.4663C24.5349 14.5922 24.5 14.7325 24.4998 14.875C24.4999 15.0208 24.5365 15.1642 24.6062 15.2922C24.6758 15.4202 24.7763 15.5288 24.8986 15.6082C24.5003 17.1134 24.4998 20.5287 24.4998 21.875C25.3748 22.4434 25.3748 22.4642 26.2498 21.875C26.2498 20.5289 26.2494 17.1143 25.8511 15.6087C25.9734 15.5293 26.074 15.4206 26.1436 15.2924C26.2132 15.1643 26.2497 15.0208 26.2498 14.875C26.2498 14.7323 26.2149 14.5918 26.1482 14.4658C26.0814 14.3397 25.9849 14.2318 25.867 14.1516V12.7615L22.6227 11.7632L26.7701 9.6895L13.9998 4.90051ZM6.54167 13.6172L5.82401 17.9232C7.25545 18.1104 8.96777 18.9425 10.5419 19.9263C11.4371 20.4858 12.2757 21.1 12.9567 21.696C13.373 22.0602 13.721 22.4096 13.9998 22.7535C14.2785 22.4096 14.6266 22.0602 15.0429 21.696C15.7239 21.1 16.5624 20.4858 17.4577 19.9263C19.0318 18.9425 20.7441 18.1104 22.1756 17.9232L21.4578 13.6172H21.116L13.9998 17.1753L6.88347 13.6172H6.54167Z" fill="white"/>
</svg>
