<svg width="24" height="24" viewBox="0 0 24 24" fill="none" xmlns="http://www.w3.org/2000/svg">
<path d="M3 3.75C3 3.15326 3.23705 2.58097 3.65901 2.15901C4.08097 1.73705 4.65326 1.5 5.25 1.5H14.0625C14.3826 1.5 14.6996 1.56305 14.9953 1.68554C15.291 1.80804 15.5597 1.98758 15.7861 2.21393C16.0124 2.44027 16.192 2.70898 16.3145 3.00471C16.437 3.30044 16.5 3.6174 16.5 3.9375V9.75H18.5625C18.8826 9.75 19.1996 9.81305 19.4953 9.93554C19.791 10.058 20.0597 10.2376 20.2861 10.4639C20.5124 10.6903 20.692 10.959 20.8145 11.2547C20.937 11.5504 21 11.8674 21 12.1875V21.75C21 21.9489 20.921 22.1397 20.7803 22.2803C20.6397 22.421 20.4489 22.5 20.25 22.5H17.25V19.125C17.25 18.8266 17.1315 18.5405 16.9205 18.3295C16.7095 18.1185 16.4234 18 16.125 18H7.875C7.57663 18 7.29048 18.1185 7.0795 18.3295C6.86853 18.5405 6.75 18.8266 6.75 19.125V22.5H3.75C3.55109 22.5 3.36032 22.421 3.21967 22.2803C3.07902 22.1397 3 21.9489 3 21.75V3.75ZM15.75 19.5V22.5H12.75V19.5H15.75ZM11.25 19.5V22.5H8.25V19.5H11.25ZM9 6.375C9 6.07663 8.88147 5.79048 8.6705 5.5795C8.45952 5.36853 8.17337 5.25 7.875 5.25C7.57663 5.25 7.29048 5.36853 7.0795 5.5795C6.86853 5.79048 6.75 6.07663 6.75 6.375C6.75 6.67337 6.86853 6.95952 7.0795 7.1705C7.29048 7.38147 7.57663 7.5 7.875 7.5C8.17337 7.5 8.45952 7.38147 8.6705 7.1705C8.88147 6.95952 9 6.67337 9 6.375ZM9 10.125C9 9.82663 8.88147 9.54048 8.6705 9.3295C8.45952 9.11853 8.17337 9 7.875 9C7.57663 9 7.29048 9.11853 7.0795 9.3295C6.86853 9.54048 6.75 9.82663 6.75 10.125C6.75 10.4234 6.86853 10.7095 7.0795 10.9205C7.29048 11.1315 7.57663 11.25 7.875 11.25C8.17337 11.25 8.45952 11.1315 8.6705 10.9205C8.88147 10.7095 9 10.4234 9 10.125ZM7.875 15C8.17337 15 8.45952 14.8815 8.6705 14.6705C8.88147 14.4595 9 14.1734 9 13.875C9 13.5766 8.88147 13.2905 8.6705 13.0795C8.45952 12.8685 8.17337 12.75 7.875 12.75C7.57663 12.75 7.29048 12.8685 7.0795 13.0795C6.86853 13.2905 6.75 13.5766 6.75 13.875C6.75 14.1734 6.86853 14.4595 7.0795 14.6705C7.29048 14.8815 7.57663 15 7.875 15ZM12.75 6.375C12.75 6.07663 12.6315 5.79048 12.4205 5.5795C12.2095 5.36853 11.9234 5.25 11.625 5.25C11.3266 5.25 11.0405 5.36853 10.8295 5.5795C10.6185 5.79048 10.5 6.07663 10.5 6.375C10.5 6.67337 10.6185 6.95952 10.8295 7.1705C11.0405 7.38147 11.3266 7.5 11.625 7.5C11.9234 7.5 12.2095 7.38147 12.4205 7.1705C12.6315 6.95952 12.75 6.67337 12.75 6.375ZM11.625 11.25C11.9234 11.25 12.2095 11.1315 12.4205 10.9205C12.6315 10.7095 12.75 10.4234 12.75 10.125C12.75 9.82663 12.6315 9.54048 12.4205 9.3295C12.2095 9.11853 11.9234 9 11.625 9C11.3266 9 11.0405 9.11853 10.8295 9.3295C10.6185 9.54048 10.5 9.82663 10.5 10.125C10.5 10.4234 10.6185 10.7095 10.8295 10.9205C11.0405 11.1315 11.3266 11.25 11.625 11.25ZM12.75 13.875C12.75 13.5766 12.6315 13.2905 12.4205 13.0795C12.2095 12.8685 11.9234 12.75 11.625 12.75C11.3266 12.75 11.0405 12.8685 10.8295 13.0795C10.6185 13.2905 10.5 13.5766 10.5 13.875C10.5 14.1734 10.6185 14.4595 10.8295 14.6705C11.0405 14.8815 11.3266 15 11.625 15C11.9234 15 12.2095 14.8815 12.4205 14.6705C12.6315 14.4595 12.75 14.1734 12.75 13.875ZM15.375 15C15.6734 15 15.9595 14.8815 16.1705 14.6705C16.3815 14.4595 16.5 14.1734 16.5 13.875C16.5 13.5766 16.3815 13.2905 16.1705 13.0795C15.9595 12.8685 15.6734 12.75 15.375 12.75C15.0766 12.75 14.7905 12.8685 14.5795 13.0795C14.3685 13.2905 14.25 13.5766 14.25 13.875C14.25 14.1734 14.3685 14.4595 14.5795 14.6705C14.7905 14.8815 15.0766 15 15.375 15Z" fill="white"/>
</svg>
