<svg width="24" height="24" viewBox="0 0 24 24" fill="none" xmlns="http://www.w3.org/2000/svg">
<g clip-path="url(#clip0_1106_6461)">
<path fill-rule="evenodd" clip-rule="evenodd" d="M1.34577 0.0411377C1.51462 0.0411377 1.6818 0.0743937 1.83779 0.139007C1.99378 0.20362 2.13552 0.298325 2.25491 0.417715C2.3743 0.537104 2.46901 0.67884 2.53362 0.83483C2.59823 0.99082 2.63149 1.15801 2.63149 1.32685V5.61257C2.63153 6.18023 2.79264 6.73624 3.09609 7.216C3.39954 7.69575 3.83288 8.07957 4.34577 8.32285V1.32685C4.34577 0.985859 4.48123 0.658833 4.72235 0.417715C4.96347 0.176596 5.2905 0.0411377 5.63149 0.0411377C5.97248 0.0411377 6.29951 0.176596 6.54063 0.417715C6.78174 0.658833 6.9172 0.985859 6.9172 1.32685V8.32285C7.4301 8.07957 7.86344 7.69575 8.16689 7.216C8.47034 6.73624 8.63144 6.18023 8.63149 5.61257V1.32685C8.63149 0.985859 8.76695 0.658833 9.00807 0.417715C9.24918 0.176596 9.57621 0.0411377 9.9172 0.0411377C10.2582 0.0411377 10.5852 0.176596 10.8263 0.417715C11.0675 0.658833 11.2029 0.985859 11.2029 1.32685V5.61257C11.2028 6.79037 10.8294 7.93783 10.1364 8.89017C9.44342 9.84251 8.46643 10.5507 7.34577 10.9131V22.2857C7.34577 22.7404 7.16516 23.1764 6.84367 23.4979C6.52218 23.8194 6.08614 24 5.63149 24C5.17683 24 4.7408 23.8194 4.4193 23.4979C4.09781 23.1764 3.9172 22.7404 3.9172 22.2857V10.9149C2.79626 10.5524 1.81908 9.84388 1.12605 8.89119C0.43302 7.93851 0.0598156 6.79066 0.0600587 5.61257V1.32685C0.0600587 0.985859 0.195517 0.658833 0.436636 0.417715C0.677754 0.176596 1.00478 0.0411377 1.34577 0.0411377ZM18.5743 0.0411377C15.5366 0.0411377 13.5326 3.00171 13.5326 6.02228C13.5326 8.42914 14.8046 10.7983 16.8583 11.6623V22.2857C16.8583 22.7404 17.039 23.1764 17.3604 23.4979C17.6819 23.8194 18.118 24 18.5726 24C19.0273 24 19.4633 23.8194 19.7848 23.4979C20.1063 23.1764 20.2869 22.7404 20.2869 22.2857V11.6606C22.3441 10.7983 23.6161 8.42914 23.6161 6.02057C23.6161 3.00171 21.6103 0.0411377 18.5743 0.0411377Z" fill="white"/>
</g>
<defs>
<clipPath id="clip0_1106_6461">
<rect width="24" height="24" fill="white"/>
</clipPath>
</defs>
</svg>
