<svg width="12" height="20" viewBox="0 0 12 20" fill="none" xmlns="http://www.w3.org/2000/svg">
<path d="M1.83301 0C1.32601 0 0.853007 0.216 0.515007 0.576C0.18275 0.932736 -0.00136709 1.4025 7.64329e-06 1.89V19C0.000125283 19.1883 0.0534318 19.3728 0.15379 19.5322C0.254148 19.6916 0.397478 19.8194 0.567276 19.9009C0.737075 19.9824 0.92644 20.0143 1.11357 19.9929C1.3007 19.9715 1.47798 19.8977 1.62501 19.78L6.00001 16.28L10.375 19.78C10.522 19.8977 10.6993 19.9715 10.8864 19.9929C11.0736 20.0143 11.2629 19.9824 11.4327 19.9009C11.6025 19.8194 11.7459 19.6916 11.8462 19.5322C11.9466 19.3728 11.9999 19.1883 12 19V1.889C12 1.408 11.822 0.935 11.485 0.576C11.3167 0.394541 11.1128 0.249735 10.886 0.150629C10.6593 0.0515225 10.4145 0.000245095 10.167 0H1.83301Z" fill="white"/>
</svg>
