<svg width="24" height="24" viewBox="0 0 24 24" fill="none" xmlns="http://www.w3.org/2000/svg">
<path d="M15.8906 4.64069C15.8906 3.90943 15.6845 3.19298 15.2959 2.5735C14.9073 1.95402 14.352 1.45659 13.6937 1.13825C13.0354 0.819915 12.3007 0.693554 11.5738 0.773662C10.8469 0.85377 10.1574 1.1371 9.58416 1.59117C9.01095 2.04524 8.57732 2.65166 8.33298 3.34089C8.08865 4.03012 8.0435 4.77426 8.20272 5.48798C8.36193 6.20169 8.71907 6.85609 9.23317 7.37613C9.74728 7.89617 10.3975 8.26079 11.1094 8.42819V21.7501L12 23.2501L12.8906 21.7501V8.42819C13.7433 8.22528 14.5028 7.74136 15.047 7.05433C15.5912 6.3673 15.8883 5.51713 15.8906 4.64069ZM13.125 4.35944C12.9303 4.35944 12.74 4.3017 12.5781 4.19354C12.4162 4.08537 12.2901 3.93164 12.2156 3.75176C12.1411 3.57189 12.1216 3.37397 12.1595 3.18302C12.1975 2.99207 12.2913 2.81667 12.4289 2.679C12.5666 2.54134 12.742 2.44758 12.933 2.4096C13.1239 2.37162 13.3218 2.39111 13.5017 2.46562C13.6816 2.54012 13.8353 2.66629 13.9435 2.82817C14.0516 2.99005 14.1094 3.18037 14.1094 3.37506C14.1094 3.63613 14.0057 3.88651 13.8211 4.07112C13.6365 4.25573 13.3861 4.35944 13.125 4.35944Z" fill="white"/>
</svg>
