<svg width="24" height="24" viewBox="0 0 24 24" fill="none" xmlns="http://www.w3.org/2000/svg">
<path d="M17.3891 4.53965L18.7331 3.19685C18.7984 3.1315 18.8759 3.07966 18.9613 3.04429C19.0466 3.00893 19.1381 2.99072 19.2305 2.99072C19.3229 2.99072 19.4144 3.00893 19.4997 3.04429C19.5851 3.07966 19.6626 3.1315 19.7279 3.19685L20.8019 4.27085C21.0779 4.54685 21.0779 4.99085 20.8019 5.26685L19.4591 6.60965L17.3891 4.53965ZM16.5407 5.38805L13.5047 8.42525L13.3487 8.26925C13.0628 7.98339 12.7131 7.76957 12.3284 7.6454C11.9436 7.52123 11.5349 7.49028 11.1358 7.55509C10.7368 7.6199 10.3588 7.77861 10.0332 8.01816C9.7075 8.2577 9.44342 8.57121 9.26269 8.93285L8.85589 9.74525C8.78487 9.88795 8.66879 10.0033 8.52561 10.0733C8.38244 10.1434 8.22016 10.1643 8.06389 10.1328L7.99429 10.1184C7.16869 9.95353 6.31328 10.0254 5.52681 10.3259C4.74033 10.6263 4.05485 11.1431 3.54949 11.8164C2.71901 12.9234 2.31578 14.2929 2.41388 15.6733C2.51198 17.0537 3.10481 18.3524 4.08349 19.3308L4.66789 19.9152C5.64633 20.8939 6.94501 21.4868 8.32542 21.5849C9.70583 21.683 11.0753 21.2797 12.1823 20.4492C12.8557 19.9439 13.3724 19.2584 13.6728 18.4719C13.9733 17.6855 14.0452 16.83 13.8803 16.0044L13.8671 15.9336C13.8358 15.7777 13.8567 15.6158 13.9265 15.4729C13.9963 15.33 14.1112 15.214 14.2535 15.1428L15.0659 14.7372C15.4277 14.5566 15.7415 14.2925 15.9812 13.9667C16.2208 13.6409 16.3797 13.2628 16.4445 12.8636C16.5093 12.4644 16.4783 12.0555 16.3539 11.6706C16.2296 11.2857 16.0156 10.9359 15.7295 10.65L15.5735 10.494L18.6095 7.45805L16.5407 5.38805ZM10.0391 13.9596C9.89979 13.8203 9.78928 13.655 9.71389 13.4729C9.6385 13.2909 9.5997 13.0959 9.5997 12.8988C9.5997 12.7018 9.6385 12.5068 9.71389 12.3247C9.78928 12.1427 9.89979 11.9774 10.0391 11.838C10.1784 11.6987 10.3438 11.5882 10.5258 11.5128C10.7078 11.4375 10.9029 11.3987 11.0999 11.3987C11.2969 11.3987 11.492 11.4375 11.674 11.5128C11.856 11.5882 12.0214 11.6987 12.1607 11.838C12.442 12.1194 12.6001 12.501 12.6001 12.8988C12.6001 13.2967 12.442 13.6783 12.1607 13.9596C11.8794 14.241 11.4978 14.399 11.0999 14.399C10.702 14.399 10.3204 14.241 10.0391 13.9596Z" fill="white"/>
</svg>
