<svg width="28" height="28" viewBox="0 0 28 28" fill="none" xmlns="http://www.w3.org/2000/svg">
<path d="M1.13284 8.86703H26.8668V7.77703C26.8668 5.36353 25.6368 4.14453 23.1873 4.14453H4.81234C2.36334 4.14453 1.13234 5.36353 1.13234 7.77753L1.13284 8.86703ZM1.13284 20.2345C1.13284 22.6485 2.36284 23.8555 4.81234 23.8555H23.1873C25.6363 23.8555 26.8673 22.6485 26.8673 20.2345V11.5275H1.13184L1.13284 20.2345ZM5.04684 17.375V15.207C5.04684 14.551 5.50384 14.082 6.19534 14.082H9.06634C9.75784 14.082 10.2148 14.551 10.2148 15.207V17.375C10.2148 18.043 9.75784 18.5 9.06634 18.5H6.19484C5.50334 18.5 5.04684 18.043 5.04684 17.375Z" fill="white"/>
</svg>
