<svg width="24" height="24" viewBox="0 0 24 24" fill="none" xmlns="http://www.w3.org/2000/svg">
<path d="M12 3.19995C10.9184 3.18395 10.9184 4.81595 12 4.79995H14.4V6.82555L9.9152 10.5599L8.3568 6.39995H8.8C9.8816 6.41595 9.8816 4.78395 8.8 4.79995H5.6C4.5184 4.78395 4.5184 6.41595 5.6 6.39995H6.6432L8.0688 10.1999C7.30371 9.81071 6.45839 9.60526 5.6 9.59995C2.5168 9.59995 0 12.1167 0 15.1999C0 18.2831 2.5168 20.7999 5.6 20.7999C8.6832 20.7999 11.2 18.2831 11.2 15.1999C11.2 14.1279 10.88 13.1343 10.352 12.2815L14.8656 8.52155L15.6064 10.3775C13.936 11.3503 12.8 13.1375 12.8 15.1999C12.8 18.2831 15.3168 20.7999 18.4 20.7999C21.4832 20.7999 24 18.2831 24 15.1999C24 12.1167 21.4832 9.59995 18.4 9.59995C17.9472 9.59995 17.5136 9.66875 17.0912 9.77115L16 7.04315V3.99995C16 3.78777 15.9157 3.58429 15.7657 3.43426C15.6157 3.28423 15.4122 3.19995 15.2 3.19995H12ZM5.6 11.1999C6.50603 11.2022 7.384 11.5144 8.088 12.0847L5.088 14.5839C4.2704 15.2671 5.2928 16.4959 6.112 15.8159L9.112 13.3151C9.4128 13.8783 9.6 14.5151 9.6 15.1999C9.6 17.4191 7.8192 19.1999 5.6 19.1999C3.3808 19.1999 1.6 17.4191 1.6 15.1999C1.6 12.9807 3.3808 11.1999 5.6 11.1999ZM18.4 11.1999C20.6192 11.1999 22.4 12.9807 22.4 15.1999C22.4 17.4191 20.6192 19.1999 18.4 19.1999C16.1808 19.1999 14.4 17.4191 14.4 15.1999C14.3985 14.5373 14.5624 13.8848 14.8767 13.3015C15.191 12.7181 15.6458 12.2224 16.2 11.8591L17.656 15.4975C18.0496 16.4943 19.544 15.8975 19.144 14.9023L17.6912 11.2703C17.92 11.2319 18.1568 11.1999 18.4 11.1999Z" fill="white"/>
</svg>
