<svg width="24" height="24" viewBox="0 0 24 24" fill="none" xmlns="http://www.w3.org/2000/svg">
<path d="M8.8002 11.2C7.73933 11.2 6.72191 10.7785 5.97177 10.0284C5.22162 9.27826 4.8002 8.26084 4.8002 7.19998V3.99998C4.8002 3.7878 4.88448 3.58432 5.03451 3.43429C5.18454 3.28426 5.38802 3.19998 5.6002 3.19998H6.4002C6.61237 3.19998 6.81585 3.11569 6.96588 2.96566C7.11591 2.81563 7.2002 2.61215 7.2002 2.39998C7.2002 2.1878 7.11591 1.98432 6.96588 1.83429C6.81585 1.68426 6.61237 1.59998 6.4002 1.59998H5.6002C4.96368 1.59998 4.35323 1.85283 3.90314 2.30292C3.45305 2.75301 3.2002 3.36346 3.2002 3.99998V7.19998C3.20122 8.10377 3.42161 8.9938 3.84244 9.79364C4.26326 10.5935 4.87194 11.2792 5.6162 11.792C6.33126 12.4224 6.91116 13.1912 7.3209 14.0519C7.73064 14.9126 7.96172 15.8475 8.0002 16.8C8.0002 18.2852 8.59019 19.7096 9.6404 20.7598C10.6906 21.81 12.115 22.4 13.6002 22.4C15.0854 22.4 16.5098 21.81 17.56 20.7598C18.6102 19.7096 19.2002 18.2852 19.2002 16.8V15.888C19.9543 15.6933 20.6115 15.2302 21.0487 14.5856C21.4858 13.9409 21.6728 13.159 21.5747 12.3864C21.4766 11.6137 21.1 10.9034 20.5156 10.3885C19.9312 9.87365 19.1791 9.58959 18.4002 9.58959C17.6213 9.58959 16.8692 9.87365 16.2848 10.3885C15.7004 10.9034 15.3238 11.6137 15.2257 12.3864C15.1276 13.159 15.3146 13.9409 15.7517 14.5856C16.1888 15.2302 16.8461 15.6933 17.6002 15.888V16.8C17.6002 17.8608 17.1788 18.8783 16.4286 19.6284C15.6785 20.3785 14.6611 20.8 13.6002 20.8C12.5393 20.8 11.5219 20.3785 10.7718 19.6284C10.0216 18.8783 9.6002 17.8608 9.6002 16.8C9.64069 15.8463 9.87427 14.9107 10.2868 14.0499C10.6993 13.1891 11.2822 12.421 12.0002 11.792C12.7415 11.2774 13.3471 10.5909 13.765 9.79119C14.183 8.99146 14.401 8.10235 14.4002 7.19998V3.99998C14.4002 3.36346 14.1473 2.75301 13.6973 2.30292C13.2472 1.85283 12.6367 1.59998 12.0002 1.59998H11.2002C10.988 1.59998 10.7845 1.68426 10.6345 1.83429C10.4845 1.98432 10.4002 2.1878 10.4002 2.39998C10.4002 2.61215 10.4845 2.81563 10.6345 2.96566C10.7845 3.11569 10.988 3.19998 11.2002 3.19998H12.0002C12.2124 3.19998 12.4159 3.28426 12.5659 3.43429C12.7159 3.58432 12.8002 3.7878 12.8002 3.99998V7.19998C12.8002 7.72526 12.6967 8.24541 12.4957 8.73071C12.2947 9.21601 12.0001 9.65697 11.6286 10.0284C11.2572 10.3998 10.8162 10.6945 10.3309 10.8955C9.84563 11.0965 9.32548 11.2 8.8002 11.2ZM18.4002 14.4C17.9758 14.4 17.5689 14.2314 17.2688 13.9313C16.9688 13.6313 16.8002 13.2243 16.8002 12.8C16.8002 12.3756 16.9688 11.9687 17.2688 11.6686C17.5689 11.3685 17.9758 11.2 18.4002 11.2C18.8245 11.2 19.2315 11.3685 19.5316 11.6686C19.8316 11.9687 20.0002 12.3756 20.0002 12.8C20.0002 13.2243 19.8316 13.6313 19.5316 13.9313C19.2315 14.2314 18.8245 14.4 18.4002 14.4Z" fill="white"/>
</svg>
