<svg width="34" height="45" viewBox="0 0 34 45" fill="none" xmlns="http://www.w3.org/2000/svg">
<g filter="url(#filter0_d_354_1048)">
<path d="M17 0C11.0001 0 4 3.6667 4 13.0001C4 19.3332 14.0001 33.3333 17 37C19.6667 33.3333 30 19.6667 30 13.0001C30 3.6667 22.9999 0 17 0Z" fill="#06A561"/>
</g>
<g clip-path="url(#clip0_354_1048)">
<path d="M22.3999 16.4963C21.333 16.4963 20.7823 16.8835 20.2966 17.2251C19.8699 17.525 19.5329 17.7619 18.7997 17.7619C18.0666 17.7619 17.7296 17.525 17.3031 17.2251C16.8174 16.8834 16.2667 16.4963 15.1998 16.4963C14.133 16.4963 13.5823 16.8835 13.0966 17.2251C12.67 17.525 12.333 17.7619 11.5999 17.7619C10.8669 17.7619 10.5299 17.525 10.1033 17.2251C9.61746 16.8835 9.06677 16.4963 8 16.4963V17.551C8.7332 17.551 9.07007 17.7879 9.49661 18.0879C9.98248 18.4295 10.533 18.8166 11.5999 18.8166C12.6667 18.8166 13.2174 18.4295 13.7031 18.0879C14.1297 17.7879 14.4667 17.551 15.1998 17.551C15.933 17.551 16.2698 17.7879 16.6965 18.0879C17.1822 18.4295 17.7329 18.8166 18.7997 18.8166C19.8666 18.8166 20.4173 18.4295 20.9032 18.0879C21.3297 17.788 21.6667 17.551 22.3999 17.551C23.1331 17.551 23.47 17.7879 23.8967 18.0879C24.3824 18.4295 24.9331 18.8166 26 18.8166V17.7619C25.2668 17.7619 24.9298 17.525 24.5033 17.2251C24.0174 16.8835 23.4667 16.4963 22.3999 16.4963Z" fill="white"/>
<path d="M22.3999 10.2748C21.333 10.2748 20.7823 10.662 20.2966 11.0035C19.8699 11.3034 19.5329 11.5405 18.7997 11.5405C18.0666 11.5405 17.7296 11.3034 17.3031 11.0035C16.8174 10.662 16.2667 10.2748 15.1998 10.2748C14.133 10.2748 13.5823 10.662 13.0966 11.0035C12.67 11.3034 12.333 11.5405 11.5999 11.5405C10.8669 11.5405 10.5299 11.3034 10.1033 11.0035C9.61746 10.662 9.06677 10.2748 8 10.2748V11.3295C8.7332 11.3295 9.07007 11.5664 9.49661 11.8663C9.98248 12.208 10.533 12.5952 11.5999 12.5952C12.6667 12.5952 13.2174 12.2079 13.7031 11.8663C14.1297 11.5664 14.4667 11.3295 15.1998 11.3295C15.933 11.3295 16.2698 11.5664 16.6965 11.8663C17.1822 12.208 17.7329 12.5952 18.7997 12.5952C19.8666 12.5952 20.4173 12.2079 20.9032 11.8663C21.3297 11.5664 21.6667 11.3295 22.3999 11.3295C23.1331 11.3295 23.47 11.5664 23.8967 11.8663C24.3824 12.208 24.9331 12.5952 26 12.5952V11.5405C25.2668 11.5405 24.9298 11.3034 24.5033 11.0035C24.0174 10.662 23.4667 10.2748 22.3999 10.2748Z" fill="white"/>
<path d="M22.3999 13.3856C21.333 13.3856 20.7823 13.7728 20.2966 14.1143C19.8699 14.4142 19.5329 14.6512 18.7997 14.6512C18.0666 14.6512 17.7296 14.4142 17.3031 14.1143C16.8174 13.7728 16.2667 13.3856 15.1998 13.3856C14.133 13.3856 13.5823 13.7728 13.0966 14.1143C12.67 14.4142 12.333 14.6512 11.5999 14.6512C10.8669 14.6512 10.5299 14.4142 10.1033 14.1143C9.61746 13.7728 9.06677 13.3856 8 13.3856V14.4403C8.7332 14.4403 9.07007 14.6772 9.49661 14.9771C9.98248 15.3187 10.533 15.7059 11.5999 15.7059C12.6667 15.7059 13.2174 15.3187 13.7031 14.9771C14.1297 14.6772 14.4667 14.4403 15.1998 14.4403C15.933 14.4403 16.2698 14.6772 16.6965 14.9771C17.1822 15.3187 17.7329 15.7059 18.7997 15.7059C19.8666 15.7059 20.4173 15.3187 20.9032 14.9771C21.3297 14.6772 21.6667 14.4403 22.3999 14.4403C23.1331 14.4403 23.47 14.6772 23.8967 14.9771C24.3824 15.3187 24.9331 15.7059 26 15.7059V14.6512C25.2668 14.6512 24.9298 14.4142 24.5033 14.1143C24.0174 13.7728 23.4667 13.3856 22.3999 13.3856Z" fill="white"/>
<path d="M24.5033 7.89287C24.0174 7.55119 23.4667 7.16406 22.3999 7.16406C21.333 7.16406 20.7823 7.55119 20.2966 7.89287C19.8699 8.19279 19.5329 8.42969 18.7997 8.42969C18.0666 8.42969 17.7296 8.19279 17.3031 7.89287C16.8174 7.55119 16.2667 7.16406 15.1998 7.16406C14.133 7.16406 13.5823 7.55119 13.0966 7.89287C12.67 8.19279 12.333 8.42969 11.5999 8.42969C10.8669 8.42969 10.5299 8.19279 10.1033 7.89287C9.61746 7.55119 9.06677 7.16406 8 7.16406V8.21875C8.7332 8.21875 9.07007 8.45564 9.49661 8.75557C9.98248 9.09724 10.533 9.48438 11.5999 9.48438C12.6667 9.48438 13.2174 9.09724 13.7031 8.75557C14.1297 8.45564 14.4667 8.21875 15.1998 8.21875C15.933 8.21875 16.2698 8.45564 16.6965 8.75557C17.1822 9.09724 17.7329 9.48438 18.7997 9.48438C19.8666 9.48438 20.4173 9.09724 20.9032 8.75557C21.3297 8.45564 21.6667 8.21875 22.3999 8.21875C23.1331 8.21875 23.47 8.45564 23.8967 8.75557C24.3824 9.09724 24.9331 9.48438 26 9.48438V8.42969C25.2668 8.42969 24.9298 8.19279 24.5033 7.89287Z" fill="white"/>
</g>
<defs>
<filter id="filter0_d_354_1048" x="0" y="0" width="34" height="45" filterUnits="userSpaceOnUse" color-interpolation-filters="sRGB">
<feFlood flood-opacity="0" result="BackgroundImageFix"/>
<feColorMatrix in="SourceAlpha" type="matrix" values="0 0 0 0 0 0 0 0 0 0 0 0 0 0 0 0 0 0 127 0" result="hardAlpha"/>
<feOffset dy="4"/>
<feGaussianBlur stdDeviation="2"/>
<feComposite in2="hardAlpha" operator="out"/>
<feColorMatrix type="matrix" values="0 0 0 0 0 0 0 0 0 0 0 0 0 0 0 0 0 0 0.25 0"/>
<feBlend mode="normal" in2="BackgroundImageFix" result="effect1_dropShadow_354_1048"/>
<feBlend mode="normal" in="SourceGraphic" in2="effect1_dropShadow_354_1048" result="shape"/>
</filter>
<clipPath id="clip0_354_1048">
<rect width="18" height="18" fill="white" transform="translate(8 4)"/>
</clipPath>
</defs>
</svg>
