<svg width="34" height="45" viewBox="0 0 34 45" fill="none" xmlns="http://www.w3.org/2000/svg">
<g filter="url(#filter0_d_354_1098)">
<path d="M17 0C11.0001 0 4 3.6667 4 13.0001C4 19.3332 14.0001 33.3333 17 37C19.6667 33.3333 30 19.6667 30 13.0001C30 3.6667 22.9999 0 17 0Z" fill="#F99600"/>
</g>
<path d="M23.9582 18.3075L22.6103 15.3212C23.1639 14.4687 23.4583 13.5 23.4583 12.4999C23.4583 10.0622 21.9384 9.06568 20.5972 8.18642C19.499 7.46667 18.4617 6.78642 18.0208 5.36241C17.9801 5.23141 17.8834 5.12116 17.7526 5.05766C17.6218 4.99416 17.4691 4.98266 17.3288 5.02541C13.7064 6.14016 11.5416 9.70118 11.5416 12.4999C11.5416 13.5 11.836 14.4687 12.3896 15.3212L11.0417 18.3075C10.9721 18.4617 10.9905 18.638 11.0909 18.7772C11.1914 18.9165 11.3604 19 11.5416 19H13.7083V20H12.6249C12.3259 20 12.0833 20.224 12.0833 20.5C12.0833 20.776 12.3259 21 12.6249 21H22.3749C22.6739 21 22.9166 20.776 22.9166 20.5C22.9166 20.224 22.6739 20 22.3749 20H21.2916V19H23.4583C23.6395 19 23.8085 18.9165 23.9089 18.7772C24.0094 18.638 24.0281 18.462 23.9582 18.3075ZM12.6249 12.4999C12.6249 10.1877 14.3133 7.28092 17.1693 6.15066C17.7886 7.57242 18.9408 8.32742 19.9697 9.00193C21.3135 9.88268 22.3749 10.5784 22.3749 12.4999C22.3749 13.0507 22.2663 13.59 22.0575 14.0967L21.2499 12.3077C21.1659 12.1212 20.9688 11.9999 20.7499 11.9999C20.5311 11.9999 20.3339 12.1212 20.25 12.3074L19.4047 14.1797L18.0367 9.85943C17.9693 9.64643 17.758 9.50018 17.5175 9.49993C17.5173 9.49993 17.517 9.49993 17.5167 9.49993C17.2768 9.49993 17.0653 9.64568 16.9973 9.85818L15.6047 14.2017L14.7496 12.3077C14.6659 12.1212 14.4688 11.9999 14.2499 11.9999C14.0311 11.9999 13.8339 12.1212 13.75 12.3074L12.9424 14.0965C12.7336 13.59 12.6249 13.0507 12.6249 12.4999ZM15.5169 18L17.5138 11.7719L19.4857 18H15.5169ZM13.4978 15.4665L14.2499 13.8L15.1174 15.722L14.387 18H12.3541L13.4978 15.4665ZM14.7916 19H16.9583V20H14.7916V19ZM20.2083 20H18.0416V19H20.2083V20ZM20.6145 18L19.8887 15.708L20.7499 13.8L21.502 15.4662L22.6458 18H20.6145Z" fill="white"/>
<defs>
<filter id="filter0_d_354_1098" x="0" y="0" width="34" height="45" filterUnits="userSpaceOnUse" color-interpolation-filters="sRGB">
<feFlood flood-opacity="0" result="BackgroundImageFix"/>
<feColorMatrix in="SourceAlpha" type="matrix" values="0 0 0 0 0 0 0 0 0 0 0 0 0 0 0 0 0 0 127 0" result="hardAlpha"/>
<feOffset dy="4"/>
<feGaussianBlur stdDeviation="2"/>
<feComposite in2="hardAlpha" operator="out"/>
<feColorMatrix type="matrix" values="0 0 0 0 0 0 0 0 0 0 0 0 0 0 0 0 0 0 0.25 0"/>
<feBlend mode="normal" in2="BackgroundImageFix" result="effect1_dropShadow_354_1098"/>
<feBlend mode="normal" in="SourceGraphic" in2="effect1_dropShadow_354_1098" result="shape"/>
</filter>
</defs>
</svg>
