<svg width="18" height="18" viewBox="0 0 18 18" fill="none" xmlns="http://www.w3.org/2000/svg">
<path fill-rule="evenodd" clip-rule="evenodd" d="M4.59375 10.125C4.59375 7.7433 6.52452 5.8125 8.90625 5.8125H9.09375C11.4755 5.8125 13.4062 7.7433 13.4062 10.125V15.5625H14.625C14.9356 15.5625 15.1875 15.8144 15.1875 16.125C15.1875 16.4356 14.9356 16.6875 14.625 16.6875H3.375C3.06434 16.6875 2.8125 16.4356 2.8125 16.125C2.8125 15.8144 3.06434 15.5625 3.375 15.5625H4.59375V10.125ZM5.71875 15.5625H12.2812V10.125C12.2812 8.3646 10.8541 6.9375 9.09375 6.9375H8.90625C7.14584 6.9375 5.71875 8.3646 5.71875 10.125V15.5625Z" fill="white"/>
<path fill-rule="evenodd" clip-rule="evenodd" d="M9 1.3125C9.31065 1.3125 9.5625 1.56434 9.5625 1.875V4.125C9.5625 4.43566 9.31065 4.6875 9 4.6875C8.68935 4.6875 8.4375 4.43566 8.4375 4.125V1.875C8.4375 1.56434 8.68935 1.3125 9 1.3125Z" fill="white"/>
<path fill-rule="evenodd" clip-rule="evenodd" d="M11.6641 5.57254C11.4056 5.40035 11.3355 5.05114 11.5077 4.79257L12.8386 2.79397C13.0108 2.5354 13.36 2.46536 13.6185 2.63755C13.8771 2.80974 13.9472 3.15894 13.775 3.41752L12.4441 5.41612C12.2719 5.67469 11.9227 5.74472 11.6641 5.57254Z" fill="white"/>
<path fill-rule="evenodd" clip-rule="evenodd" d="M1.66236 5.8567C1.50845 6.12656 1.60245 6.47009 1.8723 6.624L3.95809 7.81357C4.22794 7.96747 4.57147 7.87349 4.72537 7.60364C4.87928 7.3338 4.78529 6.99027 4.51543 6.83636L2.42965 5.64676C2.1598 5.49286 1.81627 5.58685 1.66236 5.8567Z" fill="white"/>
<path fill-rule="evenodd" clip-rule="evenodd" d="M16.3504 5.8567C16.5043 6.12656 16.4103 6.47009 16.1404 6.624L14.0546 7.81357C13.7848 7.96747 13.4413 7.87349 13.2874 7.60364C13.1335 7.3338 13.2274 6.99027 13.4973 6.83636L15.583 5.64676C15.8529 5.49286 16.1965 5.58685 16.3504 5.8567Z" fill="white"/>
<path fill-rule="evenodd" clip-rule="evenodd" d="M4.32134 2.50895C4.06277 2.68113 3.99274 3.03034 4.16492 3.28891L5.4958 5.28751C5.66798 5.54609 6.01719 5.61612 6.27576 5.44393C6.53434 5.27174 6.60437 4.92254 6.43219 4.66397L5.10131 2.66537C4.92912 2.4068 4.57992 2.33676 4.32134 2.50895Z" fill="white"/>
<path fill-rule="evenodd" clip-rule="evenodd" d="M10.1023 8.22729C10.3219 8.00761 10.678 8.00761 10.8977 8.22729L10.9888 8.31826C11.5162 8.84574 11.8125 9.56109 11.8125 10.307V10.875C11.8125 11.1857 11.5606 11.4375 11.25 11.4375C10.9393 11.4375 10.6875 11.1857 10.6875 10.875V10.307C10.6875 9.85944 10.5097 9.43021 10.1932 9.11379L10.1023 9.02274C9.88258 8.80306 9.88258 8.44696 10.1023 8.22729Z" fill="white"/>
</svg>
