<svg width="18" height="18" viewBox="0 0 18 18" fill="none" xmlns="http://www.w3.org/2000/svg">
<g clip-path="url(#clip0_8_2330)">
<path d="M12.601 2.40086C12.4671 2.40209 12.3334 2.41098 12.2006 2.42746C11.2237 0.326493 8.72864 -0.584775 6.62772 0.392123C5.3245 0.998094 4.42218 2.22896 4.23645 3.65415C2.6091 3.9652 1.54207 5.53656 1.85308 7.16386C2.12344 8.57849 3.36103 9.60135 4.80126 9.60057H6.6012C6.93258 9.60057 7.2012 9.33195 7.2012 9.00057C7.2012 8.6692 6.93258 8.40057 6.6012 8.40057H4.80126C3.80718 8.40057 3.00131 7.59471 3.00131 6.60063C3.00131 5.60655 3.80718 4.80068 4.80126 4.80068C5.19595 4.79902 5.57974 4.93002 5.89105 5.17265C6.15283 5.37586 6.52977 5.32842 6.73299 5.06664C6.9362 4.80486 6.88875 4.42792 6.62698 4.22471C6.28104 3.95875 5.88033 3.77298 5.4538 3.68083C5.73947 2.0503 7.29286 0.960068 8.9234 1.24574C10.0201 1.43788 10.9199 2.22207 11.2601 3.28217C11.3531 3.57949 11.4007 3.88915 11.401 4.20068C11.401 4.53206 11.6696 4.80068 12.001 4.80068C12.3324 4.80068 12.601 4.53206 12.601 4.20068C12.5999 4.00087 12.5847 3.80141 12.5556 3.60378C12.571 3.60347 12.5859 3.60073 12.601 3.60073C13.9265 3.60073 15.0009 4.67522 15.0009 6.00063C15.0009 7.32604 13.9264 8.40053 12.601 8.40053H11.4011C11.0697 8.40053 10.8011 8.66915 10.8011 9.00053C10.8011 9.3319 11.0697 9.60052 11.4011 9.60052H12.601C14.5892 9.60052 16.2009 7.98883 16.2009 6.00067C16.2009 4.01251 14.5891 2.40086 12.601 2.40086Z" fill="#5A607F"/>
<path d="M12.826 10.7733H9.96911L10.7126 7.32716C10.7824 7.00324 10.5764 6.68408 10.2525 6.61431C10.0329 6.56699 9.80532 6.64632 9.66268 6.81979L4.71282 12.8468C4.50246 13.1028 4.53953 13.4809 4.79555 13.6913C4.90287 13.7794 5.03744 13.8276 5.17629 13.8277H7.50118L6.4055 17.2157C6.30372 17.531 6.47684 17.8692 6.79217 17.971C7.00946 18.0412 7.24778 17.9819 7.40686 17.818L13.2566 11.791C13.4874 11.5532 13.4816 11.1734 13.2438 10.9426C13.1318 10.834 12.982 10.7733 12.826 10.7733ZM8.34024 15.1337L8.89689 13.4122C8.9988 13.0969 8.82585 12.7587 8.51057 12.6568C8.451 12.6375 8.38882 12.6277 8.32619 12.6277H6.44527L9.0169 9.49625L8.63956 11.2467C8.56966 11.5706 8.77561 11.8898 9.09949 11.9597C9.14105 11.9687 9.18348 11.9732 9.22604 11.9732H11.4074L8.34024 15.1337Z" fill="#5A607F"/>
</g>
<defs>
<clipPath id="clip0_8_2330">
<rect width="18" height="18" fill="white"/>
</clipPath>
</defs>
</svg>
