<svg width="12" height="16" viewBox="0 0 12 16" fill="none" xmlns="http://www.w3.org/2000/svg">
<path d="M10.3944 6.07266C10.3512 6.0186 10.2989 6.02922 10.2715 6.04025C10.2485 6.04956 10.1959 6.07931 10.2032 6.15388C10.2119 6.24341 10.2168 6.33469 10.2178 6.42522C10.2217 6.80078 10.071 7.16872 9.80445 7.43469C9.53957 7.69894 9.1912 7.84131 8.82026 7.83719C8.31357 7.83072 7.89332 7.56644 7.60492 7.07291C7.36645 6.66481 7.47126 6.13847 7.58223 5.58119C7.64717 5.255 7.71432 4.91769 7.71432 4.59666C7.71432 2.097 6.03388 0.654876 5.0322 0.0177202C5.01148 0.00456396 4.99176 -6.10352e-05 4.97429 -6.10352e-05C4.94588 -6.10352e-05 4.92338 0.012189 4.91229 0.019689C4.89079 0.0342515 4.85638 0.067439 4.86745 0.126189C5.25032 2.15938 4.10832 3.38222 2.89926 4.67685C1.65301 6.01131 0.240479 7.52385 0.240479 10.2517C0.240479 13.4213 2.81913 16 5.98876 16C8.59851 16 10.8995 14.1805 11.5842 11.5753C12.0512 9.79897 11.5619 7.53622 10.3944 6.07266ZM6.13217 14.773C5.33848 14.8092 4.58367 14.5246 4.00713 13.9733C3.43679 13.4279 3.10967 12.6668 3.10967 11.8852C3.10967 10.4183 3.67054 9.34138 5.1791 7.91175C5.20379 7.88835 5.22907 7.88094 5.2511 7.88094C5.27107 7.88094 5.28838 7.88703 5.30029 7.89275C5.32538 7.90484 5.36663 7.93478 5.36107 7.99953C5.30714 8.62719 5.30807 9.14816 5.36382 9.54803C5.50632 10.5694 6.25404 11.2557 7.22451 11.2557C7.70032 11.2557 8.15354 11.0767 8.5007 10.7515C8.54098 10.7138 8.58598 10.7186 8.60323 10.7222C8.62607 10.7272 8.65667 10.7412 8.6727 10.7798C8.81663 11.1273 8.8902 11.4963 8.89132 11.8762C8.89592 13.4051 7.65817 14.7047 6.13217 14.773Z" fill="#5A607F"/>
</svg>
