<svg width="34" height="45" viewBox="0 0 34 45" fill="none" xmlns="http://www.w3.org/2000/svg">
<g filter="url(#filter0_d_354_1102)">
<path d="M17 0C11.0001 0 4 3.6667 4 13.0001C4 19.3332 14.0001 33.3333 17 37C19.6667 33.3333 30 19.6667 30 13.0001C30 3.6667 22.9999 0 17 0Z" fill="#D02500"/>
</g>
<g clip-path="url(#clip0_354_1102)">
<path d="M21.3944 11.0727C21.3512 11.0186 21.2989 11.0292 21.2715 11.0403C21.2485 11.0496 21.1959 11.0793 21.2032 11.1539C21.2119 11.2434 21.2168 11.3347 21.2178 11.4252C21.2217 11.8008 21.071 12.1687 20.8044 12.4347C20.5396 12.6989 20.1912 12.8413 19.8203 12.8372C19.3136 12.8307 18.8933 12.5664 18.6049 12.0729C18.3664 11.6648 18.4713 11.1385 18.5822 10.5812C18.6472 10.255 18.7143 9.91769 18.7143 9.59666C18.7143 7.097 17.0339 5.65488 16.0322 5.01772C16.0115 5.00456 15.9918 4.99994 15.9743 4.99994C15.9459 4.99994 15.9234 5.01219 15.9123 5.01969C15.8908 5.03425 15.8564 5.06744 15.8674 5.12619C16.2503 7.15938 15.1083 8.38222 13.8993 9.67685C12.653 11.0113 11.2405 12.5238 11.2405 15.2517C11.2405 18.4213 13.8191 21 16.9888 21C19.5985 21 21.8995 19.1805 22.5842 16.5753C23.0512 14.799 22.5619 12.5362 21.3944 11.0727ZM17.1322 19.773C16.3385 19.8092 15.5837 19.5246 15.0071 18.9733C14.4368 18.4279 14.1097 17.6668 14.1097 16.8852C14.1097 15.4183 14.6705 14.3414 16.1791 12.9118C16.2038 12.8883 16.2291 12.8809 16.2511 12.8809C16.2711 12.8809 16.2884 12.887 16.3003 12.8928C16.3254 12.9048 16.3666 12.9348 16.3611 12.9995C16.3071 13.6272 16.3081 14.1482 16.3638 14.548C16.5063 15.5694 17.254 16.2557 18.2245 16.2557C18.7003 16.2557 19.1535 16.0767 19.5007 15.7515C19.541 15.7138 19.586 15.7186 19.6032 15.7222C19.6261 15.7272 19.6567 15.7412 19.6727 15.7798C19.8166 16.1273 19.8902 16.4963 19.8913 16.8762C19.8959 18.4051 18.6582 19.7047 17.1322 19.773Z" fill="white"/>
</g>
<defs>
<filter id="filter0_d_354_1102" x="0" y="0" width="34" height="45" filterUnits="userSpaceOnUse" color-interpolation-filters="sRGB">
<feFlood flood-opacity="0" result="BackgroundImageFix"/>
<feColorMatrix in="SourceAlpha" type="matrix" values="0 0 0 0 0 0 0 0 0 0 0 0 0 0 0 0 0 0 127 0" result="hardAlpha"/>
<feOffset dy="4"/>
<feGaussianBlur stdDeviation="2"/>
<feComposite in2="hardAlpha" operator="out"/>
<feColorMatrix type="matrix" values="0 0 0 0 0 0 0 0 0 0 0 0 0 0 0 0 0 0 0.25 0"/>
<feBlend mode="normal" in2="BackgroundImageFix" result="effect1_dropShadow_354_1102"/>
<feBlend mode="normal" in="SourceGraphic" in2="effect1_dropShadow_354_1102" result="shape"/>
</filter>
<clipPath id="clip0_354_1102">
<rect width="16" height="16" fill="white" transform="translate(9 5)"/>
</clipPath>
</defs>
</svg>
