<svg width="34" height="45" viewBox="0 0 34 45" fill="none" xmlns="http://www.w3.org/2000/svg">
<g filter="url(#filter0_d_759_2674)">
<path d="M17 0C11.0001 0 4 3.6667 4 13.0001C4 19.3332 14.0001 33.3333 17 37C19.6667 33.3333 30 19.6667 30 13.0001C30 3.6667 22.9999 0 17 0Z" fill="#F99600"/>
</g>
<path fill-rule="evenodd" clip-rule="evenodd" d="M12.5938 13.125C12.5938 10.7433 14.5245 8.8125 16.9062 8.8125H17.0938C19.4755 8.8125 21.4062 10.7433 21.4062 13.125V18.5625H22.625C22.9357 18.5625 23.1875 18.8143 23.1875 19.125C23.1875 19.4357 22.9357 19.6875 22.625 19.6875H11.375C11.0643 19.6875 10.8125 19.4357 10.8125 19.125C10.8125 18.8143 11.0643 18.5625 11.375 18.5625H12.5938V13.125ZM13.7188 18.5625H20.2812V13.125C20.2812 11.3646 18.8541 9.9375 17.0938 9.9375H16.9062C15.1458 9.9375 13.7188 11.3646 13.7188 13.125V18.5625Z" fill="white"/>
<path fill-rule="evenodd" clip-rule="evenodd" d="M17 4.3125C17.3107 4.3125 17.5625 4.56434 17.5625 4.875V7.125C17.5625 7.43566 17.3107 7.6875 17 7.6875C16.6893 7.6875 16.4375 7.43566 16.4375 7.125V4.875C16.4375 4.56434 16.6893 4.3125 17 4.3125Z" fill="white"/>
<path fill-rule="evenodd" clip-rule="evenodd" d="M19.6641 8.57257C19.4056 8.40038 19.3355 8.05117 19.5077 7.7926L20.8386 5.794C21.0108 5.53543 21.36 5.46539 21.6185 5.63758C21.8771 5.80977 21.9472 6.15897 21.775 6.41755L20.4441 8.41615C20.2719 8.67472 19.9227 8.74475 19.6641 8.57257Z" fill="white"/>
<path fill-rule="evenodd" clip-rule="evenodd" d="M9.66236 8.85674C9.50845 9.12659 9.60245 9.47012 9.8723 9.62403L11.9581 10.8136C12.2279 10.9675 12.5715 10.8735 12.7254 10.6037C12.8793 10.3338 12.7853 9.9903 12.5154 9.83639L10.4297 8.6468C10.1598 8.49289 9.81627 8.58688 9.66236 8.85674Z" fill="white"/>
<path fill-rule="evenodd" clip-rule="evenodd" d="M24.3504 8.85674C24.5043 9.12659 24.4103 9.47012 24.1404 9.62403L22.0546 10.8136C21.7848 10.9675 21.4413 10.8735 21.2874 10.6037C21.1335 10.3338 21.2274 9.9903 21.4973 9.83639L23.583 8.6468C23.8529 8.49289 24.1965 8.58688 24.3504 8.85674Z" fill="white"/>
<path fill-rule="evenodd" clip-rule="evenodd" d="M12.3213 5.50898C12.0628 5.68116 11.9927 6.03037 12.1649 6.28894L13.4958 8.28754C13.668 8.54612 14.0172 8.61615 14.2758 8.44396C14.5343 8.27177 14.6044 7.92257 14.4322 7.664L13.1013 5.6654C12.9291 5.40683 12.5799 5.33679 12.3213 5.50898Z" fill="white"/>
<path fill-rule="evenodd" clip-rule="evenodd" d="M18.1023 11.2273C18.3219 11.0076 18.678 11.0076 18.8977 11.2273L18.9888 11.3182C19.5162 11.8457 19.8125 12.5611 19.8125 13.3069V13.875C19.8125 14.1856 19.5606 14.4375 19.25 14.4375C18.9393 14.4375 18.6875 14.1856 18.6875 13.875V13.3069C18.6875 12.8594 18.5097 12.4302 18.1932 12.1138L18.1023 12.0227C17.8826 11.803 17.8826 11.4469 18.1023 11.2273Z" fill="white"/>
<defs>
<filter id="filter0_d_759_2674" x="0" y="0" width="34" height="45" filterUnits="userSpaceOnUse" color-interpolation-filters="sRGB">
<feFlood flood-opacity="0" result="BackgroundImageFix"/>
<feColorMatrix in="SourceAlpha" type="matrix" values="0 0 0 0 0 0 0 0 0 0 0 0 0 0 0 0 0 0 127 0" result="hardAlpha"/>
<feOffset dy="4"/>
<feGaussianBlur stdDeviation="2"/>
<feComposite in2="hardAlpha" operator="out"/>
<feColorMatrix type="matrix" values="0 0 0 0 0 0 0 0 0 0 0 0 0 0 0 0 0 0 0.25 0"/>
<feBlend mode="normal" in2="BackgroundImageFix" result="effect1_dropShadow_759_2674"/>
<feBlend mode="normal" in="SourceGraphic" in2="effect1_dropShadow_759_2674" result="shape"/>
</filter>
</defs>
</svg>
