<svg width="18" height="18" viewBox="0 0 18 18" fill="none" xmlns="http://www.w3.org/2000/svg">
<g clip-path="url(#clip0_8_2325)">
<path d="M14.3999 12.4963C13.333 12.4963 12.7823 12.8835 12.2966 13.2251C11.8699 13.525 11.5329 13.7619 10.7997 13.7619C10.0666 13.7619 9.72963 13.525 9.30309 13.2251C8.81735 12.8834 8.26666 12.4963 7.19975 12.4963C6.13298 12.4963 5.58229 12.8835 5.09656 13.2251C4.67001 13.525 4.33301 13.7619 3.59995 13.7619C2.86688 13.7619 2.52988 13.525 2.10333 13.2251C1.61746 12.8835 1.06677 12.4963 0 12.4963V13.551C0.7332 13.551 1.07007 13.7879 1.49661 14.0879C1.98248 14.4295 2.53304 14.8166 3.59995 14.8166C4.66672 14.8166 5.21741 14.4295 5.70314 14.0879C6.12968 13.7879 6.46669 13.551 7.19975 13.551C7.93295 13.551 8.26982 13.7879 8.6965 14.0879C9.18224 14.4295 9.73293 14.8166 10.7997 14.8166C11.8666 14.8166 12.4173 14.4295 12.9032 14.0879C13.3297 13.788 13.6667 13.551 14.3999 13.551C15.1331 13.551 15.47 13.7879 15.8967 14.0879C16.3824 14.4295 16.9331 14.8166 18 14.8166V13.7619C17.2668 13.7619 16.9298 13.525 16.5033 13.2251C16.0174 12.8835 15.4667 12.4963 14.3999 12.4963Z" fill="#5A607F"/>
<path d="M14.3999 6.27484C13.333 6.27484 12.7823 6.66197 12.2966 7.00351C11.8699 7.30344 11.5329 7.54047 10.7997 7.54047C10.0666 7.54047 9.72963 7.30344 9.30309 7.00351C8.81735 6.66197 8.26666 6.27484 7.19975 6.27484C6.13298 6.27484 5.58229 6.66197 5.09656 7.00351C4.67001 7.30344 4.33301 7.54047 3.59995 7.54047C2.86688 7.54047 2.52988 7.30344 2.10333 7.00351C1.61746 6.66197 1.06677 6.27484 0 6.27484V7.32953C0.7332 7.32953 1.07007 7.56642 1.49661 7.86635C1.98248 8.20802 2.53304 8.59515 3.59995 8.59515C4.66672 8.59515 5.21741 8.20789 5.70314 7.86635C6.12968 7.56642 6.46669 7.32953 7.19975 7.32953C7.93295 7.32953 8.26982 7.56642 8.6965 7.86635C9.18224 8.20802 9.73293 8.59515 10.7997 8.59515C11.8666 8.59515 12.4173 8.20789 12.9032 7.86635C13.3297 7.56642 13.6667 7.32953 14.3999 7.32953C15.1331 7.32953 15.47 7.56642 15.8967 7.86635C16.3824 8.20802 16.9331 8.59515 18 8.59515V7.54047C17.2668 7.54047 16.9298 7.30344 16.5033 7.00351C16.0174 6.66197 15.4667 6.27484 14.3999 6.27484Z" fill="#5A607F"/>
<path d="M14.3999 9.38562C13.333 9.38562 12.7823 9.77275 12.2966 10.1143C11.8699 10.4142 11.5329 10.6512 10.7997 10.6512C10.0666 10.6512 9.72963 10.4142 9.30309 10.1143C8.81735 9.77275 8.26666 9.38562 7.19975 9.38562C6.13298 9.38562 5.58229 9.77275 5.09656 10.1143C4.67001 10.4142 4.33301 10.6512 3.59995 10.6512C2.86688 10.6512 2.52988 10.4142 2.10333 10.1143C1.61746 9.77275 1.06677 9.38562 0 9.38562V10.4403C0.7332 10.4403 1.07007 10.6772 1.49661 10.9771C1.98248 11.3187 2.53304 11.7059 3.59995 11.7059C4.66672 11.7059 5.21741 11.3187 5.70314 10.9771C6.12968 10.6772 6.46669 10.4403 7.19975 10.4403C7.93295 10.4403 8.26982 10.6772 8.6965 10.9771C9.18224 11.3187 9.73293 11.7059 10.7997 11.7059C11.8666 11.7059 12.4173 11.3187 12.9032 10.9771C13.3297 10.6772 13.6667 10.4403 14.3999 10.4403C15.1331 10.4403 15.47 10.6772 15.8967 10.9771C16.3824 11.3187 16.9331 11.7059 18 11.7059V10.6512C17.2668 10.6512 16.9298 10.4142 16.5033 10.1143C16.0174 9.77275 15.4667 9.38562 14.3999 9.38562Z" fill="#5A607F"/>
<path d="M16.5033 3.89287C16.0174 3.55119 15.4667 3.16406 14.3999 3.16406C13.333 3.16406 12.7823 3.55119 12.2966 3.89287C11.8699 4.19279 11.5329 4.42969 10.7997 4.42969C10.0666 4.42969 9.72963 4.19279 9.30309 3.89287C8.81735 3.55119 8.26666 3.16406 7.19975 3.16406C6.13298 3.16406 5.58229 3.55119 5.09656 3.89287C4.67001 4.19279 4.33301 4.42969 3.59995 4.42969C2.86688 4.42969 2.52988 4.19279 2.10333 3.89287C1.61746 3.55119 1.06677 3.16406 0 3.16406V4.21875C0.7332 4.21875 1.07007 4.45564 1.49661 4.75557C1.98248 5.09724 2.53304 5.48438 3.59995 5.48438C4.66672 5.48438 5.21741 5.09724 5.70314 4.75557C6.12968 4.45564 6.46669 4.21875 7.19975 4.21875C7.93295 4.21875 8.26982 4.45564 8.6965 4.75557C9.18224 5.09724 9.73293 5.48438 10.7997 5.48438C11.8666 5.48438 12.4173 5.09724 12.9032 4.75557C13.3297 4.45564 13.6667 4.21875 14.3999 4.21875C15.1331 4.21875 15.47 4.45564 15.8967 4.75557C16.3824 5.09724 16.9331 5.48438 18 5.48438V4.42969C17.2668 4.42969 16.9298 4.19279 16.5033 3.89287Z" fill="#5A607F"/>
</g>
<defs>
<clipPath id="clip0_8_2325">
<rect width="18" height="18" fill="white"/>
</clipPath>
</defs>
</svg>
