<svg width="18" height="18" viewBox="0 0 18 18" fill="none" xmlns="http://www.w3.org/2000/svg">
<path d="M15.7066 14.9709L14.3069 11.6114C14.8817 10.6523 15.1874 9.56248 15.1874 8.43748C15.1874 5.69502 13.6091 4.57395 12.2163 3.5848C11.0759 2.77508 9.99866 2.0098 9.54079 0.407797C9.4986 0.260422 9.3982 0.136391 9.26235 0.0649536C9.12651 -0.00648387 8.96788 -0.0194214 8.8222 0.0286724C5.06048 1.28277 2.81245 5.28889 2.81245 8.43748C2.81245 9.56248 3.11816 10.6523 3.69304 11.6114L2.29326 14.9709C2.22098 15.1445 2.2401 15.3427 2.34445 15.4994C2.44879 15.656 2.62429 15.75 2.81245 15.75H5.06245V16.875H3.93745C3.62695 16.875 3.37495 17.127 3.37495 17.4375C3.37495 17.748 3.62695 18 3.93745 18H14.0624C14.3729 18 14.6249 17.748 14.6249 17.4375C14.6249 17.127 14.3729 16.875 14.0624 16.875H12.9374V15.75H15.1874C15.3756 15.75 15.5511 15.656 15.6554 15.4994C15.7598 15.3427 15.7792 15.1447 15.7066 14.9709ZM3.93745 8.43748C3.93745 5.8362 5.69076 2.56611 8.65654 1.29458C9.29976 2.89405 10.4962 3.74342 11.5647 4.50223C12.9602 5.49308 14.0624 6.2758 14.0624 8.43748C14.0624 9.05708 13.9497 9.66374 13.7328 10.2338L12.8941 8.2212C12.8069 8.01139 12.6022 7.87498 12.3749 7.87498C12.1477 7.87498 11.9429 8.01139 11.8558 8.22092L10.978 10.3272L9.55738 5.46692C9.48735 5.2273 9.26798 5.06277 9.01823 5.06248C9.01795 5.06248 9.01766 5.06248 9.01738 5.06248C8.7682 5.06248 8.54854 5.22645 8.47795 5.46552L7.03176 10.352L6.14385 8.2212C6.05695 8.01139 5.8522 7.87498 5.62495 7.87498C5.3977 7.87498 5.19295 8.01139 5.10576 8.22092L4.26707 10.2335C4.05023 9.66374 3.93745 9.05708 3.93745 8.43748ZM6.94063 14.625L9.01429 7.61848L11.0621 14.625H6.94063ZM4.84391 11.7748L5.62495 9.89999L6.52579 12.0622L5.76726 14.625H3.6562L4.84391 11.7748ZM6.18745 15.75H8.43745V16.875H6.18745V15.75ZM11.8124 16.875H9.56245V15.75H11.8124V16.875ZM12.2343 14.625L11.4806 12.0465L12.3749 9.89999L13.156 11.7745L14.3437 14.625H12.2343Z" fill="#5A607F"/>
</svg>
