<svg width="34" height="45" viewBox="0 0 34 45" fill="none" xmlns="http://www.w3.org/2000/svg">
<g filter="url(#filter0_d_354_1006)">
<path d="M17 0C11.0001 0 4 3.6667 4 13.0001C4 19.3332 14.0001 33.3333 17 37C19.6667 33.3333 30 19.6667 30 13.0001C30 3.6667 22.9999 0 17 0Z" fill="#F99600"/>
</g>
<g clip-path="url(#clip0_354_1006)">
<path d="M20.6008 7.40086C20.467 7.40209 20.3333 7.41098 20.2005 7.42746C19.2236 5.32649 16.7285 4.41523 14.6276 5.39212C13.3244 5.99809 12.4221 7.22896 12.2363 8.65415C10.609 8.9652 9.54194 10.5366 9.85295 12.1639C10.1233 13.5785 11.3609 14.6014 12.8011 14.6006H14.6011C14.9325 14.6006 15.2011 14.3319 15.2011 14.0006C15.2011 13.6692 14.9325 13.4006 14.6011 13.4006H12.8011C11.8071 13.4006 11.0012 12.5947 11.0012 11.6006C11.0012 10.6065 11.8071 9.80068 12.8011 9.80068C13.1958 9.79902 13.5796 9.93002 13.8909 10.1727C14.1527 10.3759 14.5297 10.3284 14.7329 10.0666C14.9361 9.80486 14.8886 9.42792 14.6269 9.22471C14.2809 8.95875 13.8802 8.77298 13.4537 8.68083C13.7394 7.0503 15.2927 5.96007 16.9233 6.24574C18.02 6.43788 18.9198 7.22207 19.2599 8.28217C19.353 8.57949 19.4005 8.88915 19.4009 9.20068C19.4009 9.53206 19.6695 9.80068 20.0009 9.80068C20.3323 9.80068 20.6009 9.53206 20.6009 9.20068C20.5997 9.00087 20.5846 8.80141 20.5554 8.60378C20.5709 8.60347 20.5857 8.60073 20.6009 8.60073C21.9263 8.60073 23.0008 9.67522 23.0008 11.0006C23.0008 12.326 21.9263 13.4005 20.6009 13.4005H19.4009C19.0696 13.4005 18.8009 13.6692 18.8009 14.0005C18.8009 14.3319 19.0696 14.6005 19.4009 14.6005H20.6009C22.589 14.6005 24.2007 12.9888 24.2007 11.0007C24.2007 9.01251 22.589 7.40086 20.6008 7.40086Z" fill="white"/>
<path d="M20.8258 15.7733H17.9689L18.7124 12.3272C18.7821 12.0032 18.5761 11.6841 18.2522 11.6143C18.0327 11.567 17.8051 11.6463 17.6624 11.8198L12.7126 17.8468C12.5022 18.1028 12.5393 18.4809 12.7953 18.6913C12.9026 18.7794 13.0372 18.8276 13.176 18.8277H15.5009L14.4053 22.2157C14.3035 22.531 14.4766 22.8692 14.7919 22.971C15.0092 23.0412 15.2475 22.9819 15.4066 22.818L21.2564 16.791C21.4871 16.5532 21.4814 16.1734 21.2435 15.9426C21.1316 15.834 20.9818 15.7733 20.8258 15.7733ZM16.34 20.1337L16.8966 18.4122C16.9986 18.0969 16.8256 17.7587 16.5103 17.6568C16.4508 17.6375 16.3886 17.6277 16.326 17.6277H14.445L17.0167 14.4962L16.6393 16.2467C16.5694 16.5706 16.7754 16.8898 17.0992 16.9597C17.1408 16.9687 17.1832 16.9732 17.2258 16.9732H19.4071L16.34 20.1337Z" fill="white"/>
</g>
<defs>
<filter id="filter0_d_354_1006" x="0" y="0" width="34" height="45" filterUnits="userSpaceOnUse" color-interpolation-filters="sRGB">
<feFlood flood-opacity="0" result="BackgroundImageFix"/>
<feColorMatrix in="SourceAlpha" type="matrix" values="0 0 0 0 0 0 0 0 0 0 0 0 0 0 0 0 0 0 127 0" result="hardAlpha"/>
<feOffset dy="4"/>
<feGaussianBlur stdDeviation="2"/>
<feComposite in2="hardAlpha" operator="out"/>
<feColorMatrix type="matrix" values="0 0 0 0 0 0 0 0 0 0 0 0 0 0 0 0 0 0 0.25 0"/>
<feBlend mode="normal" in2="BackgroundImageFix" result="effect1_dropShadow_354_1006"/>
<feBlend mode="normal" in="SourceGraphic" in2="effect1_dropShadow_354_1006" result="shape"/>
</filter>
<clipPath id="clip0_354_1006">
<rect width="18" height="18" fill="white" transform="translate(8 5)"/>
</clipPath>
</defs>
</svg>
