<svg width="34" height="45" viewBox="0 0 34 45" fill="none" xmlns="http://www.w3.org/2000/svg">
<g filter="url(#filter0_d_1_1330)">
<path d="M17 0C11.0001 0 4 3.6667 4 13.0001C4 19.3332 14.0001 33.3333 17 37C19.6667 33.3333 30 19.6667 30 13.0001C30 3.6667 22.9999 0 17 0Z" fill="#F99600"/>
</g>
<g clip-path="url(#clip0_1_1330)">
<path d="M20.601 7.40086C20.4671 7.40208 20.3334 7.41098 20.2006 7.42746C19.2237 5.32649 16.7286 4.41522 14.6277 5.39212C13.3245 5.99809 12.4222 7.22896 12.2365 8.65414C10.6091 8.9652 9.54207 10.5366 9.85308 12.1639C10.1234 13.5785 11.361 14.6013 12.8013 14.6006H14.6012C14.9326 14.6006 15.2012 14.3319 15.2012 14.0006C15.2012 13.6692 14.9326 13.4006 14.6012 13.4006H12.8013C11.8072 13.4006 11.0013 12.5947 11.0013 11.6006C11.0013 10.6065 11.8072 9.80067 12.8013 9.80067C13.1959 9.79902 13.5797 9.93001 13.8911 10.1726C14.1528 10.3759 14.5298 10.3284 14.733 10.0666C14.9362 9.80486 14.8888 9.42792 14.627 9.22471C14.281 8.95874 13.8803 8.77297 13.4538 8.68083C13.7395 7.0503 15.2929 5.96006 16.9234 6.24574C18.0201 6.43787 18.9199 7.22207 19.2601 8.28217C19.3531 8.57949 19.4007 8.88914 19.401 9.20068C19.401 9.53205 19.6696 9.80067 20.001 9.80067C20.3324 9.80067 20.601 9.53205 20.601 9.20068C20.5999 9.00087 20.5847 8.80141 20.5556 8.60378C20.571 8.60347 20.5859 8.60072 20.601 8.60072C21.9265 8.60072 23.0009 9.67522 23.0009 11.0006C23.0009 12.326 21.9264 13.4005 20.601 13.4005H19.4011C19.0697 13.4005 18.8011 13.6691 18.8011 14.0005C18.8011 14.3319 19.0697 14.6005 19.4011 14.6005H20.601C22.5892 14.6005 24.2009 12.9888 24.2009 11.0007C24.2009 9.01251 22.5891 7.40086 20.601 7.40086Z" fill="white"/>
<path d="M20.826 15.7733H17.9691L18.7126 12.3272C18.7824 12.0033 18.5764 11.6841 18.2525 11.6143C18.0329 11.567 17.8053 11.6463 17.6627 11.8198L12.7128 17.8468C12.5025 18.1028 12.5395 18.4809 12.7955 18.6913C12.9029 18.7794 13.0374 18.8276 13.1763 18.8277H15.5012L14.4055 22.2157C14.3037 22.531 14.4768 22.8692 14.7922 22.971C15.0095 23.0412 15.2478 22.9819 15.4069 22.818L21.2566 16.791C21.4874 16.5532 21.4816 16.1734 21.2438 15.9426C21.1318 15.834 20.982 15.7733 20.826 15.7733ZM16.3402 20.1337L16.8969 18.4122C16.9988 18.0969 16.8259 17.7587 16.5106 17.6568C16.451 17.6375 16.3888 17.6277 16.3262 17.6277H14.4453L17.0169 14.4963L16.6396 16.2467C16.5697 16.5706 16.7756 16.8898 17.0995 16.9597C17.141 16.9687 17.1835 16.9732 17.226 16.9732H19.4074L16.3402 20.1337Z" fill="white"/>
</g>
<defs>
<filter id="filter0_d_1_1330" x="0" y="0" width="34" height="45" filterUnits="userSpaceOnUse" color-interpolation-filters="sRGB">
<feFlood flood-opacity="0" result="BackgroundImageFix"/>
<feColorMatrix in="SourceAlpha" type="matrix" values="0 0 0 0 0 0 0 0 0 0 0 0 0 0 0 0 0 0 127 0" result="hardAlpha"/>
<feOffset dy="4"/>
<feGaussianBlur stdDeviation="2"/>
<feComposite in2="hardAlpha" operator="out"/>
<feColorMatrix type="matrix" values="0 0 0 0 0 0 0 0 0 0 0 0 0 0 0 0 0 0 0.25 0"/>
<feBlend mode="normal" in2="BackgroundImageFix" result="effect1_dropShadow_1_1330"/>
<feBlend mode="normal" in="SourceGraphic" in2="effect1_dropShadow_1_1330" result="shape"/>
</filter>
<clipPath id="clip0_1_1330">
<rect width="18" height="18" fill="white" transform="translate(8 5)"/>
</clipPath>
</defs>
</svg>
