<svg width="24" height="24" viewBox="0 0 24 24" fill="none" xmlns="http://www.w3.org/2000/svg">
<path fill-rule="evenodd" clip-rule="evenodd" d="M7.59216 11.282C6.57241 10.2623 5.99951 8.8792 5.99951 7.43704C5.99951 5.99489 6.57241 4.6118 7.59216 3.59204C8.61192 2.57228 9.99501 1.99939 11.4372 1.99939C12.8793 1.99939 14.2624 2.57228 15.2822 3.59204L17.2042 5.51504L17.1082 6.01004L17.1072 6.01904L17.0942 6.07304C17.0733 6.15508 17.05 6.23645 17.0242 6.31704C16.9181 6.64164 16.7895 6.95842 16.6392 7.26504C16.2512 8.07104 15.5632 9.18804 14.3752 10.375C13.1872 11.564 12.0712 12.251 11.2652 12.64C10.8622 12.834 10.5352 12.953 10.3172 13.023C10.2189 13.0547 10.1195 13.0828 10.0192 13.107L10.0102 13.109L9.51516 13.204L7.59216 11.282ZM13.5302 4.47004C13.4615 4.39635 13.3787 4.33725 13.2867 4.29626C13.1947 4.25527 13.0954 4.23323 12.9947 4.23145C12.894 4.22967 12.794 4.2482 12.7006 4.28592C12.6072 4.32364 12.5223 4.37978 12.4511 4.451C12.3799 4.52222 12.3238 4.60705 12.286 4.70044C12.2483 4.79383 12.2298 4.89386 12.2316 4.99456C12.2333 5.09527 12.2554 5.19458 12.2964 5.28658C12.3374 5.37858 12.3965 5.46138 12.4702 5.53004L13.9702 7.03004C14.0388 7.10373 14.1216 7.16283 14.2136 7.20382C14.3056 7.24481 14.4049 7.26686 14.5056 7.26863C14.6063 7.27041 14.7064 7.25188 14.7998 7.21416C14.8931 7.17644 14.978 7.1203 15.0492 7.04908C15.1204 6.97786 15.1766 6.89303 15.2143 6.79964C15.252 6.70625 15.2705 6.60622 15.2688 6.50552C15.267 6.40482 15.2449 6.3055 15.2039 6.2135C15.163 6.1215 15.1038 6.0387 15.0302 5.97004L13.5302 4.47004Z" fill="white"/>
<path d="M18.452 6.77399L18.455 6.76599L20.408 8.71799C20.913 9.22292 21.3135 9.82237 21.5868 10.4821C21.86 11.1418 22.0007 11.8489 22.0007 12.563C22.0007 13.2771 21.86 13.9842 21.5868 14.6439C21.3135 15.3036 20.913 15.9031 20.408 16.408C19.9031 16.9129 19.3037 17.3135 18.6439 17.5867C17.9842 17.86 17.2771 18.0006 16.563 18.0006C15.849 18.0006 15.1419 17.86 14.4821 17.5867C13.8224 17.3135 13.223 16.9129 12.718 16.408L10.766 14.455L10.773 14.452C11.1643 14.325 11.5462 14.171 11.916 13.991C12.859 13.536 14.118 12.755 15.436 11.437C16.754 10.118 17.536 8.85999 17.99 7.91699C18.217 7.44599 18.363 7.05399 18.452 6.77399ZM5.28604 10.648C4.44137 11.0772 3.71035 11.7003 3.15281 12.4663C2.59527 13.2323 2.22705 14.1195 2.07831 15.0551C1.92957 15.9908 2.00452 16.9485 2.29704 17.8496C2.58956 18.7508 3.09133 19.5698 3.76127 20.2398C4.43121 20.9097 5.25027 21.4115 6.15142 21.704C7.05258 21.9965 8.01019 22.0715 8.94588 21.9227C9.88157 21.774 10.7687 21.4058 11.5348 20.8482C12.3008 20.2907 12.9239 19.5597 13.353 18.715C12.7279 18.3879 12.1563 17.9674 11.658 17.468L6.53204 12.342C6.03302 11.8439 5.61286 11.2727 5.28604 10.648Z" fill="white"/>
</svg>
