<svg width="24" height="24" viewBox="0 0 24 24" fill="none" xmlns="http://www.w3.org/2000/svg">
<path d="M21.4558 18.0829C21.3525 18.381 21.1359 18.6264 20.853 18.766C20.57 18.9056 20.2435 18.9281 19.944 18.8287C19.6446 18.7293 19.3963 18.516 19.253 18.2349C19.1097 17.9538 19.0828 17.6276 19.1783 17.3269C19.594 16.0593 19.8039 14.7333 19.7999 13.3993C19.7999 8.05206 16.4927 4.50486 11.9999 4.50486C7.50705 4.50486 4.19985 8.05206 4.19985 13.3993C4.19985 14.7673 4.41345 16.0957 4.82145 17.3269C4.91689 17.6276 4.89004 17.9538 4.74673 18.2349C4.60341 18.516 4.35515 18.7293 4.0557 18.8287C3.75624 18.9281 3.42969 18.9056 3.14674 18.766C2.86378 18.6264 2.64719 18.381 2.54385 18.0829C2.04707 16.5715 1.79588 14.9902 1.79985 13.3993C1.79985 6.76326 6.14265 2.10486 11.9999 2.10486C17.857 2.10486 22.1999 6.76326 22.1999 13.3993C22.1999 15.0241 21.9454 16.6069 21.4558 18.0829Z" fill="white"/>
<path d="M7.17233 20.4408C6.2213 20.4225 5.31616 20.0286 4.65466 19.3451C3.99316 18.6615 3.62907 17.744 3.64193 16.7928V16.7664C3.64833 16.2955 3.74776 15.8305 3.9345 15.3981C4.12125 14.9657 4.39163 14.5745 4.73009 14.2469C5.06855 13.9194 5.46841 13.662 5.9067 13.4896C6.34498 13.3171 6.81303 13.233 7.28393 13.242C7.60073 13.2484 7.90218 13.3797 8.1225 13.6074C8.34281 13.8352 8.46411 14.1408 8.45993 14.4576L8.39513 19.2576C8.39295 19.4158 8.35954 19.5719 8.29682 19.717C8.23411 19.8622 8.14333 19.9935 8.02969 20.1034C7.91606 20.2134 7.78182 20.2998 7.63469 20.3577C7.48755 20.4156 7.33042 20.4439 7.17233 20.4408ZM16.9067 13.2C17.8578 13.2184 18.7629 13.6123 19.4244 14.2958C20.0859 14.9794 20.45 15.8969 20.4371 16.848V16.8744C20.4309 17.3438 20.3322 17.8072 20.1468 18.2384C19.9614 18.6696 19.6929 19.06 19.3566 19.3874C19.0203 19.7148 18.6228 19.9727 18.1868 20.1465C17.7508 20.3202 17.2848 20.4064 16.8155 20.4H16.7963C16.4791 20.3941 16.1772 20.2627 15.9566 20.0346C15.736 19.8066 15.6146 19.5005 15.6191 19.1832L15.6839 14.3832C15.6861 14.2251 15.7195 14.069 15.7822 13.9239C15.845 13.7787 15.9357 13.6474 16.0494 13.5375C16.163 13.4275 16.2972 13.3411 16.4444 13.2832C16.5915 13.2253 16.7486 13.197 16.9067 13.2Z" fill="white"/>
</svg>
