<svg width="24" height="24" viewBox="0 0 24 24" fill="none" xmlns="http://www.w3.org/2000/svg">
<g clip-path="url(#clip0_1106_6545)">
<path d="M4.5 15C2.01562 15 0 12.9844 0 10.5C0 8.50781 1.29375 6.81563 3.08906 6.225C3.03281 5.91094 3 5.58281 3 5.25C3 2.34844 5.34844 0 8.25 0C10.2703 0 12.0234 1.13906 12.9 2.8125C13.5891 2.01094 14.6109 1.5 15.75 1.5C17.8219 1.5 19.5 3.17812 19.5 5.25C19.5 5.50781 19.4719 5.75625 19.425 6H19.5C21.9844 6 24 8.01562 24 10.5C24 12.9844 21.9844 15 19.5 15H4.5ZM4.18125 17.4375C4.24219 17.3203 4.36406 17.25 4.5 17.25C4.63594 17.25 4.75313 17.3203 4.81875 17.4375L6.46406 20.4656C6.65625 20.8172 6.75469 21.2062 6.75469 21.6047V21.7453C6.75469 22.9875 5.74687 23.9953 4.50469 23.9953C3.2625 23.9953 2.25469 22.9875 2.25469 21.7453V21.6047C2.25469 21.2062 2.35312 20.8125 2.54531 20.4656L4.18125 17.4375ZM11.6812 17.4375C11.7422 17.3203 11.8641 17.25 12 17.25C12.1359 17.25 12.2531 17.3203 12.3187 17.4375L13.9641 20.4656C14.1562 20.8172 14.2547 21.2062 14.2547 21.6047V21.7453C14.2547 22.9875 13.2469 23.9953 12.0047 23.9953C10.7625 23.9953 9.75469 22.9875 9.75469 21.7453V21.6047C9.75469 21.2062 9.85313 20.8125 10.0453 20.4656L11.6812 17.4375ZM17.5359 20.4656L19.1813 17.4375C19.2422 17.3203 19.3641 17.25 19.5 17.25C19.6359 17.25 19.7531 17.3203 19.8187 17.4375L21.4641 20.4656C21.6562 20.8172 21.7547 21.2062 21.7547 21.6047V21.7453C21.7547 22.9875 20.7469 23.9953 19.5047 23.9953C18.2625 23.9953 17.2547 22.9875 17.2547 21.7453V21.6047C17.2547 21.2062 17.3531 20.8125 17.5453 20.4656H17.5359Z" fill="white"/>
</g>
<defs>
<clipPath id="clip0_1106_6545">
<rect width="24" height="24" fill="white"/>
</clipPath>
</defs>
</svg>
